<?xml version="1.0" standalone="no"?>
<!DOCTYPE svg PUBLIC "-//W3C//DTD SVG 20010904//EN"
 "http://www.w3.org/TR/2001/REC-SVG-20010904/DTD/svg10.dtd">
<svg version="1.0" xmlns="http://www.w3.org/2000/svg"
 width="1200.000000pt" height="600.000000pt" viewBox="0 0 1200.000000 600.000000"
 preserveAspectRatio="xMidYMid meet">

<g transform="translate(0.000000,600.000000) scale(0.100000,-0.100000)"
fill="#000000" stroke="none">
<path d="M4730 5125 c-152 -17 -223 -37 -355 -100 -258 -125 -423 -345 -488
-649 -22 -101 -22 -105 -22 -1376 0 -1274 0 -1275 22 -1377 45 -211 125 -355
276 -500 143 -136 316 -216 529 -245 134 -19 2482 -19 2616 0 228 31 409 120
558 274 172 176 242 347 265 643 7 93 9 533 6 1315 -4 1147 -4 1177 -25 1271
-45 210 -121 348 -272 492 -84 81 -115 104 -202 147 -244 120 -244 120 -1653
119 -842 -1 -1170 -5 -1255 -14z m1665 -755 c188 -26 436 -101 631 -191 l87
-39 102 15 c57 8 121 15 144 15 l42 0 -23 -41 c-21 -38 -120 -139 -137 -139
-4 0 -5 -29 -3 -64 8 -117 -44 -448 -99 -633 -12 -40 -25 -73 -29 -73 -4 0
-10 58 -13 129 -11 212 -42 383 -82 462 l-15 29 -63 -36 c-34 -19 -127 -68
-207 -108 -80 -41 -169 -88 -198 -105 -29 -17 -52 -28 -52 -25 0 3 28 38 63
78 59 66 123 148 176 224 l23 32 -89 -6 c-142 -9 -436 -43 -556 -64 -62 -10
-113 -17 -115 -15 -10 10 283 125 437 170 64 19 167 45 229 59 63 13 115 26
118 28 11 12 -197 141 -390 243 -69 37 -126 69 -126 71 0 3 15 3 33 0 17 -3
68 -10 112 -16z m-694 -699 c-25 -35 -71 -131 -71 -148 0 -7 9 -13 19 -13 42
0 251 -61 344 -100 96 -39 211 -99 205 -106 -2 -1 -46 4 -98 13 -117 19 -455
22 -517 5 -38 -11 -43 -17 -63 -70 -23 -61 -71 -239 -90 -335 -6 -31 -15 -55
-19 -52 -5 2 -34 83 -66 180 -32 96 -62 175 -66 175 -21 0 -252 -187 -382
-309 -37 -35 -70 -61 -74 -58 -8 8 96 194 155 277 26 36 81 106 124 157 l78
92 -53 25 c-62 30 -138 51 -225 61 -35 4 -60 11 -55 15 22 22 216 51 372 57
l165 6 69 45 c72 46 218 111 250 112 17 0 17 -2 -2 -29z m-892 -1055 c23 -95
96 -290 115 -304 6 -6 62 -1 133 12 67 11 125 17 129 14 3 -4 -3 -20 -15 -37
-12 -16 -38 -64 -57 -106 l-37 -76 29 -30 c39 -41 149 -113 219 -145 32 -13
55 -27 53 -30 -9 -8 -189 16 -265 35 l-73 19 0 -72 c0 -39 4 -88 9 -108 5 -21
5 -38 1 -38 -21 0 -161 189 -189 257 -9 21 -38 42 -126 88 -123 64 -163 90
-154 100 4 3 49 21 100 40 85 30 94 36 91 57 -11 109 -2 431 13 416 2 -2 13
-43 24 -92z m1471 -529 c-36 -34 -94 -87 -129 -118 l-64 -56 11 -43 c6 -24 9
-47 6 -52 -3 -4 -34 -8 -68 -8 -52 0 -78 -7 -147 -39 -84 -39 -278 -105 -286
-98 -2 2 22 24 54 47 32 24 72 56 90 71 l32 27 -47 12 c-26 6 -69 22 -97 34
l-50 23 84 8 c45 4 115 15 154 24 l71 16 80 102 c45 56 84 102 89 102 4 1 7
-28 7 -64 0 -41 4 -65 11 -65 16 0 136 64 194 104 75 51 77 43 5 -27z"/>
</g>
</svg>
