<?xml version="1.0" standalone="no"?>
<!DOCTYPE svg PUBLIC "-//W3C//DTD SVG 20010904//EN"
 "http://www.w3.org/TR/2001/REC-SVG-20010904/DTD/svg10.dtd">
<svg version="1.0" xmlns="http://www.w3.org/2000/svg"
 width="512.000000pt" height="512.000000pt" viewBox="0 0 512.000000 512.000000"
 preserveAspectRatio="xMidYMid meet">

<g transform="translate(0.000000,512.000000) scale(0.100000,-0.100000)"
fill="#000000" stroke="none">
<path d="M390 5110 c-202 -36 -350 -185 -380 -385 -7 -48 -10 -736 -8 -2210
l3 -2140 23 -59 c65 -171 195 -280 367 -306 48 -7 736 -10 2210 -8 l2140 3 59
23 c171 65 280 195 306 367 7 48 10 736 8 2210 l-3 2140 -23 59 c-64 169 -194
279 -362 305 -78 13 -4270 13 -4340 1z m2659 -806 c280 -41 536 -118 806 -241
l120 -55 105 16 c58 9 140 19 183 23 l79 6 -22 -43 c-26 -52 -109 -142 -158
-172 -34 -21 -34 -22 -28 -72 18 -156 -81 -753 -150 -901 l-19 -40 -2 70 c-11
315 -46 544 -104 672 l-28 63 -63 -36 c-35 -20 -133 -71 -218 -114 -85 -43
-204 -105 -264 -139 -60 -33 -110 -60 -112 -58 -1 1 43 54 98 117 54 63 128
156 163 205 l64 90 -41 3 c-107 8 -746 -65 -913 -104 -41 -10 85 51 213 102
214 86 572 190 723 210 27 4 52 10 54 15 13 20 -243 181 -510 320 -169 88
-168 92 24 63z m-868 -883 c-21 -29 -101 -192 -101 -205 0 -3 11 -6 24 -6 51
0 300 -70 422 -119 121 -49 300 -138 292 -146 -2 -2 -41 2 -86 10 -219 39
-600 45 -712 13 l-45 -13 -47 -140 c-25 -77 -58 -196 -73 -265 -14 -69 -29
-136 -32 -150 -5 -24 -6 -23 -24 15 -10 22 -47 127 -81 232 -35 106 -68 193
-75 193 -28 0 -321 -236 -496 -400 -43 -40 -80 -70 -83 -67 -7 7 35 90 109
212 71 118 201 294 285 385 l60 66 -33 23 c-18 12 -64 33 -102 45 -62 21 -103
30 -258 54 l-50 8 55 16 c142 42 352 68 546 68 l101 0 69 46 c38 25 101 61
141 80 73 35 205 84 212 78 2 -1 -7 -17 -18 -33z m-1072 -1563 c24 -61 76
-174 85 -185 1 -1 67 9 146 22 137 24 190 29 190 22 0 -2 -22 -40 -48 -84 -66
-109 -98 -191 -85 -212 14 -22 137 -115 202 -153 29 -17 83 -44 120 -59 l66
-28 -55 -1 c-68 0 -221 23 -317 48 l-73 18 -6 -35 c-7 -33 9 -189 23 -228 9
-28 -83 65 -137 137 -26 36 -67 100 -90 143 l-42 78 -92 46 c-118 59 -246 133
-246 142 0 8 35 23 160 66 l95 32 -5 59 c-8 93 -5 446 4 479 7 26 12 14 41
-100 19 -71 47 -165 64 -207z m1831 -434 c-41 -42 -211 -194 -268 -239 -2 -2
4 -31 13 -65 9 -34 15 -64 13 -65 -2 -2 -48 -7 -103 -11 -86 -6 -110 -12 -170
-42 -108 -54 -360 -141 -372 -128 -2 2 20 20 49 41 29 21 81 61 116 89 l63 50
-83 27 c-46 14 -101 35 -123 45 l-40 18 100 9 c55 4 141 17 190 27 85 18 92
22 134 67 24 27 75 87 112 136 l68 87 5 -52 c3 -29 7 -70 9 -92 l2 -38 89 47
c49 25 123 68 165 95 42 27 78 49 81 49 2 1 -20 -24 -50 -55z"/>
</g>
</svg>
