<?xml version="1.0" standalone="no"?>
<!DOCTYPE svg PUBLIC "-//W3C//DTD SVG 20010904//EN"
 "http://www.w3.org/TR/2001/REC-SVG-20010904/DTD/svg10.dtd">
<svg version="1.0" xmlns="http://www.w3.org/2000/svg"
 width="512.000000pt" height="512.000000pt" viewBox="0 0 512.000000 512.000000"
 preserveAspectRatio="xMidYMid meet">

<g transform="translate(0.000000,512.000000) scale(0.100000,-0.100000)"
fill="#000000" stroke="none">
<path d="M969 4681 c-70 -22 -158 -80 -205 -135 -37 -41 -80 -126 -104 -201
-35 -109 -78 -131 -265 -137 -127 -4 -145 -7 -196 -31 -66 -32 -141 -108 -172
-175 l-22 -47 -3 -1595 c-2 -1118 1 -1614 8 -1659 24 -138 100 -227 230 -265
48 -14 238 -16 1855 -16 1983 0 1851 -4 1983 62 79 39 177 129 219 200 21 34
179 470 424 1168 l392 1115 1 85 c1 69 -3 94 -22 135 -46 100 -136 165 -253
185 -35 5 -164 10 -286 10 l-222 0 -3 283 -3 282 -28 61 c-34 73 -92 132 -167
171 l-55 28 -865 5 c-934 5 -874 2 -963 59 -21 13 -70 69 -112 126 -90 124
-170 200 -257 242 -121 60 -148 63 -518 62 -293 0 -342 -2 -391 -18z m759
-281 c74 -34 102 -59 187 -175 96 -129 153 -181 250 -230 135 -66 112 -65
1023 -65 809 0 822 0 842 -20 19 -19 20 -33 20 -275 l0 -255 -1422 -2 c-1351
-3 -1426 -4 -1478 -21 -133 -45 -264 -145 -324 -250 -16 -26 -144 -379 -287
-785 l-258 -737 -1 1157 0 1157 22 15 c17 12 48 16 124 16 177 0 269 31 369
122 62 57 96 108 124 191 34 98 52 126 95 152 l41 25 315 0 c291 0 318 -2 358
-20z m3093 -1310 c10 -6 19 -21 19 -34 0 -35 -766 -2212 -790 -2246 -22 -31
-85 -77 -133 -98 -21 -9 -441 -12 -1812 -12 -981 0 -1790 3 -1799 6 -9 4 -16
18 -16 34 0 15 173 522 385 1126 l384 1099 55 51 c95 90 -83 82 1914 83 1205
1 1780 -2 1793 -9z"/>
</g>
</svg>
