<?xml version="1.0" standalone="no"?>
<!DOCTYPE svg PUBLIC "-//W3C//DTD SVG 20010904//EN"
 "http://www.w3.org/TR/2001/REC-SVG-20010904/DTD/svg10.dtd">
<svg version="1.0" xmlns="http://www.w3.org/2000/svg"
 width="404.000000pt" height="316.000000pt" viewBox="0 0 404.000000 316.000000"
 preserveAspectRatio="xMidYMid meet">

<g transform="translate(0.000000,316.000000) scale(0.100000,-0.100000)"
fill="#000000" stroke="none">
<path d="M0 1580 l0 -1580 2020 0 2020 0 0 1580 0 1580 -2020 0 -2020 0 0
-1580z m2970 155 l0 -945 -950 0 -950 0 0 945 0 945 950 0 950 0 0 -945z
m-1592 -1128 l31 -52 1 53 c0 46 3 52 20 52 20 0 21 -5 18 -92 -2 -61 -7 -93
-15 -95 -7 -3 -31 24 -53 58 -22 35 -41 64 -43 65 -1 1 -2 -25 -2 -59 0 -53
-3 -62 -18 -62 -16 0 -18 10 -18 90 0 50 0 93 0 96 1 3 11 4 24 2 15 -3 35
-24 55 -56z m1560 35 c3 -20 1 -21 -24 -12 -29 12 -54 7 -54 -9 0 -6 18 -20
40 -31 48 -24 65 -52 50 -80 -27 -50 -130 -56 -130 -8 0 16 4 18 23 12 37 -12
61 -10 65 7 2 10 -8 21 -28 29 -30 12 -70 53 -70 71 0 5 9 18 21 30 29 29 103
24 107 -9z m-1704 -4 c8 -13 7 -23 -2 -39 -11 -18 -11 -24 2 -38 9 -10 16 -28
16 -40 0 -29 -57 -54 -114 -49 l-41 4 -3 92 -3 93 67 -3 c51 -2 70 -7 78 -20z
m408 5 c10 -9 18 -24 18 -34 0 -25 -47 -59 -81 -59 -27 0 -29 -3 -29 -41 0
-36 -2 -40 -22 -37 -22 3 -23 8 -26 96 l-3 92 62 0 c44 0 68 -5 81 -17z m249
7 c27 -15 25 -64 -3 -84 -12 -9 -35 -16 -50 -16 -24 0 -27 -4 -30 -37 -2 -31
-7 -39 -25 -41 -22 -3 -23 -1 -23 92 l0 96 56 0 c30 0 64 -5 75 -10z m166 -75
c17 -44 32 -86 33 -92 0 -24 -40 -14 -50 12 -7 19 -17 25 -40 25 -23 0 -33 -6
-40 -25 -6 -16 -17 -25 -31 -25 -13 0 -19 5 -16 13 3 6 20 49 38 95 43 110 60
109 106 -3z m205 68 c23 -21 23 -49 -1 -70 -19 -16 -19 -17 5 -54 30 -48 30
-49 -1 -49 -20 0 -30 10 -50 50 -30 59 -30 56 -5 63 24 6 27 42 4 51 -40 16
-44 9 -44 -80 0 -83 -1 -85 -22 -82 -22 3 -23 7 -23 95 l0 93 59 0 c41 0 65
-5 78 -17z m108 -79 c0 -93 -1 -95 -22 -92 -22 3 -23 7 -23 96 0 89 1 92 23
92 21 0 22 -3 22 -96z m198 84 c16 -16 15 -43 -2 -57 -13 -11 -12 -15 5 -32
42 -42 7 -81 -81 -87 l-60 -4 0 96 0 96 63 0 c36 0 68 -5 75 -12z m186 -74
c20 -47 36 -90 36 -95 0 -20 -41 -8 -52 16 -9 19 -19 25 -44 25 -26 0 -33 -5
-38 -25 -4 -16 -13 -25 -26 -25 -26 0 -25 2 9 85 15 39 31 78 34 88 4 9 15 17
26 17 14 0 27 -20 55 -86z"/>
<path d="M2250 2423 c83 -48 180 -111 180 -117 0 -2 -35 -12 -77 -21 -84 -19
-290 -88 -305 -103 -5 -5 22 -3 59 4 94 18 303 30 303 17 0 -5 -27 -42 -60
-81 -33 -40 -60 -74 -60 -76 0 -2 59 27 132 65 72 38 132 68 134 67 13 -16 38
-124 48 -208 l12 -105 22 82 c13 45 28 135 34 200 9 99 14 121 33 138 11 11
30 31 40 44 l20 24 -79 -7 c-47 -3 -84 -2 -91 4 -33 28 -258 94 -390 115 -37
5 -33 2 45 -42z"/>
<path d="M1764 2060 c-65 -34 -87 -40 -137 -40 -70 0 -188 -18 -201 -31 -6 -5
2 -9 20 -9 38 0 95 -16 119 -34 19 -13 18 -15 -16 -57 -44 -55 -87 -119 -124
-184 l-28 -50 49 46 c60 56 194 163 197 158 2 -2 16 -45 32 -96 16 -51 32 -90
36 -88 3 3 10 25 13 50 4 24 17 75 30 112 23 67 23 68 67 76 43 8 218 1 269
-10 41 -9 11 11 -65 44 -38 17 -95 36 -125 43 -30 7 -61 14 -68 16 -9 3 -8 14
8 43 33 65 29 65 -76 11z"/>
<path d="M1370 1453 c0 -84 -3 -113 -12 -113 -7 0 -30 -8 -52 -18 l-38 -17 74
-43 c48 -27 80 -52 87 -70 14 -31 73 -111 82 -112 3 0 4 25 1 56 -4 54 -4 55
19 49 36 -8 134 -23 137 -21 1 2 -24 19 -56 39 -88 54 -90 58 -58 118 14 28
26 53 26 56 0 5 -81 -4 -111 -13 -18 -5 -60 73 -74 136 -16 77 -24 62 -25 -47z"/>
<path d="M2005 1216 c-42 -52 -66 -64 -142 -68 -54 -2 -56 -16 -3 -24 22 -4
40 -10 40 -15 0 -4 -17 -22 -37 -39 l-38 -31 30 7 c17 3 50 15 75 26 25 11 68
23 95 27 47 6 50 8 47 32 -2 21 9 38 55 83 l58 56 -60 -35 -59 -35 -11 33 -10
33 -40 -50z"/>
<path d="M1140 570 c0 -66 1 -70 23 -70 13 0 28 5 35 12 16 16 -3 48 -28 48
-27 0 -25 14 6 35 20 13 23 19 13 31 -6 8 -20 14 -30 14 -17 0 -19 -8 -19 -70z"/>
<path d="M1550 609 c0 -27 3 -30 27 -27 49 5 40 57 -9 58 -13 0 -18 -8 -18
-31z"/>
<path d="M1808 610 c-4 -26 -1 -30 18 -30 12 0 28 7 35 16 11 14 10 18 -6 30
-29 21 -42 17 -47 -16z"/>
<path d="M1990 591 c0 -5 -3 -16 -6 -25 -4 -11 0 -16 14 -16 15 0 19 5 15 20
-6 22 -23 38 -23 21z"/>
<path d="M2477 634 c-4 -4 -7 -36 -7 -71 0 -55 2 -63 19 -63 53 0 73 44 26 56
-30 8 -33 30 -4 37 13 4 20 12 17 24 -3 18 -38 30 -51 17z"/>
<path d="M2685 581 c-8 -26 -3 -34 19 -29 12 2 13 7 2 27 l-14 24 -7 -22z"/>
</g>
</svg>
